<svg version="1.0" fill="none" xmlns="http://www.w3.org/2000/svg"
 viewBox="0 0 1473 416"
 preserveAspectRatio="xMidYMid meet">

  <title>tkokhing's blog</title>
  <desc>Learning never stops</desc>

<g transform="translate(0.000000,416) scale(0.100000,-0.100000)"
fill="#0071C1" stroke="none">

<path d="M1000 3850 l0 -130 300 0 300 0 0 130 0 130 -300 0 -300 0 0 -130z"/>
<path d="M1000 3200 l0 -260 -150 0 -150 0 0 -130 0 -130 -150 0 -150 0 0
-130 0 -130 -150 0 -150 0 0 -130 0 -130 150 0 150 0 0 130 0 130 300 0 300 0
0 -130 0 -130 150 0 150 0 0 130 0 130 150 0 150 0 0 130 0 130 150 0 150 0 0
130 0 130 -150 0 -150 0 0 -130 0 -130 -300 0 -300 0 0 130 0 130 150 0 150 0
0 260 0 260 -150 0 -150 0 0 -260z"/>
<path d="M2500 3330 l0 -130 -150 0 -150 0 0 -390 0 -390 150 0 150 0 0 -130
0 -130 -300 0 -300 0 0 -130 0 -130 300 0 300 0 0 -130 0 -130 -150 0 -150 0
0 -390 0 -390 150 0 150 0 0 390 0 390 150 0 150 0 0 -130 0 -130 150 0 150 0
0 -130 0 -130 150 0 150 0 0 -130 0 -130 300 0 300 0 0 130 0 130 -300 0 -300
0 0 130 0 130 -150 0 -150 0 0 130 0 130 -150 0 -150 0 0 130 0 130 450 0 450
0 0 130 0 130 -450 0 -450 0 0 130 0 130 150 0 150 0 0 130 0 130 150 0 150 0
0 130 0 130 -150 0 -150 0 0 -130 0 -130 -150 0 -150 0 0 -130 0 -130 -150 0
-150 0 0 385 0 385 150 0 150 0 0 135 0 135 -150 0 -150 0 0 -130z m300 -1300
l0 -130 -150 0 -150 0 0 130 0 130 150 0 150 0 0 -130z"/>
<path d="M6700 3330 l0 -130 -150 0 -150 0 0 -390 0 -390 150 0 150 0 0 -130
0 -130 -300 0 -300 0 0 -130 0 -130 300 0 300 0 0 -130 0 -130 -150 0 -150 0
0 -390 0 -390 150 0 150 0 0 390 0 390 150 0 150 0 0 -130 0 -130 150 0 150 0
0 -130 0 -130 150 0 150 0 0 -130 0 -130 300 0 300 0 0 130 0 130 150 0 150 0
0 -130 0 -130 150 0 150 0 0 130 0 130 -150 0 -150 0 0 390 0 390 150 0 150 0
0 130 0 130 -150 0 -150 0 0 520 0 520 -150 0 -150 0 0 -1040 0 -1040 -300 0
-300 0 0 130 0 130 -150 0 -150 0 0 130 0 130 -150 0 -150 0 0 130 0 130 450
0 450 0 0 130 0 130 -450 0 -450 0 0 130 0 130 150 0 150 0 0 130 0 130 150 0
150 0 0 130 0 130 -150 0 -150 0 0 -130 0 -130 -150 0 -150 0 0 -130 0 -130
-150 0 -150 0 0 390 0 390 150 0 150 0 0 130 0 130 -150 0 -150 0 0 -130z
m300 -1300 l0 -130 -150 0 -150 0 0 130 0 130 150 0 150 0 0 -130z"/>
<path d="M9700 3330 l0 -130 -150 0 -150 0 0 -260 0 -260 150 0 150 0 0 260 0
260 150 0 150 0 0 130 0 130 -150 0 -150 0 0 -130z"/>
<path d="M10300 2810 l0 -130 150 0 150 0 0 -130 0 -130 -150 0 -150 0 0 -130
0 -130 150 0 150 0 0 -260 0 -260 -150 0 -150 0 0 -130 0 -130 150 0 150 0 0
-130 0 -130 -150 0 -150 0 0 -130 0 -130 300 0 300 0 0 260 0 260 -150 0 -150
0 0 130 0 130 150 0 150 0 0 260 0 260 -150 0 -150 0 0 130 0 130 150 0 150 0
0 260 0 260 -300 0 -300 0 0 -130z"/>
<path d="M13600 2810 l0 -130 -150 0 -150 0 0 -260 0 -260 150 0 150 0 0 260
0 260 300 0 300 0 0 -130 0 -130 150 0 150 0 0 130 0 130 -150 0 -150 0 0 130
0 130 -300 0 -300 0 0 -130z"/>
<path d="M4600 2550 l0 -130 -150 0 -150 0 0 -130 0 -130 -150 0 -150 0 0
-390 0 -390 150 0 150 0 0 -130 0 -130 150 0 150 0 0 -130 0 -130 300 0 300 0
0 130 0 130 150 0 150 0 0 130 0 130 150 0 150 0 0 390 0 390 -150 0 -150 0 0
130 0 130 -150 0 -150 0 0 130 0 130 -300 0 -300 0 0 -130z m600 -260 l0 -130
150 0 150 0 0 -390 0 -390 -150 0 -150 0 0 -130 0 -130 -300 0 -300 0 0 130 0
130 -150 0 -150 0 0 390 0 390 150 0 150 0 0 130 0 130 300 0 300 0 0 -130z"/>
<path d="M11200 2550 l0 -130 150 0 150 0 0 -130 0 -130 -150 0 -150 0 0 -520
0 -520 150 0 150 0 0 -130 0 -130 150 0 150 0 0 130 0 130 -150 0 -150 0 0
520 0 520 150 0 150 0 0 130 0 130 300 0 300 0 0 -130 0 -130 150 0 150 0 0
-520 0 -520 -150 0 -150 0 0 -130 0 -130 150 0 150 0 0 130 0 130 150 0 150 0
0 520 0 520 -150 0 -150 0 0 130 0 130 -150 0 -150 0 0 130 0 130 -300 0 -300
0 0 -130 0 -130 -150 0 -150 0 0 130 0 130 -150 0 -150 0 0 -130z"/>
<path d="M9400 2290 l0 -130 -150 0 -150 0 0 -130 0 -130 150 0 150 0 0 -390
0 -390 150 0 150 0 0 -130 0 -130 150 0 150 0 0 130 0 130 -150 0 -150 0 0
390 0 390 -150 0 -150 0 0 130 0 130 150 0 150 0 0 130 0 130 -150 0 -150 0 0
-130z"/>
<path d="M14200 2030 l0 -130 -300 0 -300 0 0 -130 0 -130 300 0 300 0 0 -260
0 -260 -150 0 -150 0 0 -130 0 -130 -150 0 -150 0 0 -130 0 -130 -150 0 -150
0 0 -130 0 -130 -150 0 -150 0 0 -130 0 -130 150 0 150 0 0 130 0 130 150 0
150 0 0 130 0 130 150 0 150 0 0 130 0 130 150 0 150 0 0 130 0 130 150 0 150
0 0 260 0 260 -150 0 -150 0 0 130 0 130 150 0 150 0 0 130 0 130 -150 0 -150
0 0 -130z"/>
<path d="M1000 1380 l0 -520 150 0 150 0 0 130 0 130 150 0 150 0 0 130 0 130
-150 0 -150 0 0 260 0 260 -150 0 -150 0 0 -520z"/>
</g>
</svg>
